<svg xmlns="http://www.w3.org/2000/svg" id="merixstudio-logotype" width="177.617" height="177.617" class="site-header__logo-image svg-logo">
  <g id="sign-group" class="svg-logo__sign">
    <path id="bound" fill="none" d="M0 0h177.42v177.42H0z"/>
    <g id="sign">
      <linearGradient id="frame_1_" x1="-144.303" x2="-144.303" y1="216.3" y2="283.36" gradientTransform="matrix(2.6457 0 0 -2.6457 470.49 749.682)" gradientUnits="userSpaceOnUse">
        <stop offset="0" stop-color="#e9521e"/>
        <stop offset="1" stop-color="#f07e1b"/>
      </linearGradient>
      <path id="frame" fill="url(#frame_1_)" d="M88.71 177.419c-2.872 0-5.744-.781-7.833-1.826l-63.449-36.557c-4.438-2.609-7.832-8.354-7.832-13.576V52.089c0-5.222 3.395-10.966 7.832-13.576L80.877 1.958c4.438-2.61 11.488-2.61 15.666 0l63.448 36.556c4.439 2.61 7.834 8.354 7.834 13.576v73.372c0 5.223-3.395 10.967-7.834 13.576l-63.448 36.557c-2.35 1.303-4.961 1.824-7.833 1.824zm0-169.455c-1.566 0-2.872.26-3.917.782L21.345 45.3c-1.827 1.044-3.917 4.439-3.917 6.528v73.37c0 2.35 1.828 5.484 3.917 6.529l63.448 36.553c1.828 1.045 5.745 1.045 7.572 0l63.448-36.553c1.828-1.045 3.917-4.439 3.917-6.529v-73.37c0-2.35-1.828-5.484-3.917-6.528L92.365 8.746c-.783-.522-2.349-.782-3.655-.782z"/>
      <linearGradient id="type_2_" x1="-144.106" x2="-144.106" y1="243.882" y2="255.764" gradientTransform="matrix(2.6457 0 0 -2.6457 470.49 749.682)" gradientUnits="userSpaceOnUse">
        <stop offset="0" stop-color="#e9521e"/>
        <stop offset="1" stop-color="#f07e1b"/>
      </linearGradient>
      <path id="type_1_" fill="url(#type_2_)" d="M65.732 104.31l-4.438-21.931h17.755c2.09 0 3.917 1.305 4.439 3.132l3.916 18.54h9.923l-4.179-20.626c0-.523-.261-.785-.522-1.045h17.495c2.088 0 3.916 1.305 4.438 3.132l3.917 18.54h9.922l-4.178-20.626c-1.566-6.267-7.312-10.706-13.839-10.706H50.066l6.527 31.333 9.139.257z"/>
    </g>
  </g>
</svg>
